/* XPM */
static char *f6c5183fabd340dafaf30408c1f182443dx4x4weq3QJOoCZ[] = {
/* columns rows colors chars-per-pixel */
"64 64 6 1 ",
"  c None",
". c #1C2B2D",
"X c #1F6F8B",
"o c #99A8B2",
"O c #E6D5B8",
"+ c white",
/* pixels */
"                                                                ",
"                                                                ",
"                                                                ",
"                       +++++++++++                              ",
"                     ++...........++                            ",
"                    +..OOOOOOOOOOO..+                           ",
"                   +.OOOOOOOOOOOOOOO.+                          ",
"                  +.OOOOOOOOOOOOOOOOO.+                         ",
"                 +.OOOOOOOOOOOOOOOOOOO.+                        ",
"                +.OOOOOOOOOOOOOOOOOOOOO.+                       ",
"            +++++.OOOOOOOOOOOOOOOOOOOOO.+                       ",
"           +.....OOOOOOOOOOOOOOOOOOOOOOO.+                      ",
"           +.OOO.OOOOOOOOOOOOOOOOOOOOOOO.+                      ",
"            .OOOO.OOOOOOOOOOOOOOOOOOOOOO.+                      ",
"            +.OOOO.OOOOOOOOOOOOOOOOOOOOOO.+                     ",
"            +.OOOOO.OOOOOOOOO....OOOOO....+                     ",
"             +.OOOOO.OOOOOOOO....OOOOO.....+                    ",
"             +.OOOOO.OOOOOOO..o...OOO..o...+                    ",
"             +.OOOOOO.OOOOOO......OOO......+                    ",
"              +.OOOOOOOOOOOO......OOO......+                    ",
"              +..OOOOOOOOOOOO....oOOOO.....+                    ",
"              +.O..OOOOOOOOOO....oOOOO....+                     ",
"               +.ooOOOOOOOOOOOoooOOOOOOoo.+                     ",
"               +.OOOOOOOOOOOOOOOOOOOOOOOO.+                     ",
"               +.OOOOOOOOOOOOOOOOOOOOOOOO.+                     ",
"                +.OOOOOOOOOOOOOOOOOOOOOO.+                      ",
"                +.OOOOOOOOOOOOOOOOOOOOOO.+                      ",
"              ++++.OOOOOOOOOOOOO......OO.+++                    ",
"             +..............OOOOO.OO.OO.....+                   ",
"             +.XXXXXXXXXXXX.OOOOOOOOOO......+                   ",
"             +.XXXXXXXXXXXX.OOOOOOOOO......+                    ",
"              +.XXXXXXXXXXX.OOOOOOOO.....++                     ",
"              +.XXXXXXXXXX.OOOOOOOO......+                      ",
"               +.XXXXXXXXX..............+                       ",
"               +.XXXXXXXXX..............+                       ",
"               +.XXXXXXXXX............X.+                       ",
"                +.XXXXXXXXX..........XX.+                       ",
"                +.XXXXXXXXXX........XXX.+                       ",
"                +....XXXXXXX.......XXXX..+                      ",
"                +.XXX.XXXXXXX.....XXXXX..+                      ",
"                +.XXXX.XXXXXXX...XXXXXX..+                      ",
"                +.XXXXX.XXXXXXX.XXXXXXX..+                      ",
"                +.XXXXX.XXXXXXXXXXXXXXX.X.+                     ",
"                +.XXXXX.XXXXXXXXXXXXXXX.X.+                     ",
"                 +.XXXXX.XXXXXXXXXXXXXX.X.+                     ",
"                 +.XXXXX.XXXXXXXXXXXXXX.O.+                     ",
"                 +.XXOOO.XXXXXXXXXXXXXX.O.+                     ",
"                  +.OOOO.XXXXXXXXXXXXXX.O.+                     ",
"                   +.OOO.XXXXXXXXXXXXXX..+                      ",
"                   +....XXXXXXXXXXXXXXX.+                       ",
"                  +.XXXXXXXXXXXXXXXXXXX.+                       ",
"                  +.XXXXXXXXXXXXXXXXXXX.+                       ",
"                  +.XXXXXXXXX.XXXXXXXXX.+                       ",
"                 +.XXXXXXXXX.+.XXXXXXXX.+                       ",
"                 +.XXXXXXXX.+ +.XXXXXXX.+                       ",
"                 +.ooXXXXX.+  +.XXXXXXX.+                       ",
"                  ..oXXXXX.+  +.XXXXXXX.+                       ",
"                  +..oooX..+  +.XXXXXoo.+                       ",
"                   +......+   +..ooooo..+                       ",
"                    ++++++     ++.....++                        ",
"                                 +++++                          ",
"                                                                ",
"                                                                ",
"                                                                "
};
